<svg xmlns="http://www.w3.org/2000/svg" width="53.538" height="45.633" viewBox="0 0 53.538 45.633"><defs><style>.a{fill:#41c8e8;}</style></defs><path class="a" d="M53.442,19.174a1.286,1.286,0,0,0-1.082-.541H38.652v-5.05a10.467,10.467,0,0,0-3.788-8.477A12.1,12.1,0,0,0,26.928,2.4C21.156,2.4,15.2,6.188,15.2,13.4v5.231H1.5a1.286,1.286,0,0,0-1.082.541,1.482,1.482,0,0,0-.18,1.263L8.711,47.131a1.356,1.356,0,0,0,1.263.9H43.882a1.356,1.356,0,0,0,1.263-.9l8.477-26.694A1.482,1.482,0,0,0,53.442,19.174ZM17.909,13.222c0-5.772,4.69-8.3,9.018-8.3A9.579,9.579,0,0,1,33.24,7.09a8.055,8.055,0,0,1,2.706,6.493v5.05H17.909ZM42.8,45.147H10.875L3.3,21.339H15.2v5.952a1.423,1.423,0,0,0,1.443,1.443,1.327,1.327,0,0,0,1.443-1.443V21.339H36.126v5.952a1.423,1.423,0,0,0,1.443,1.443,1.327,1.327,0,0,0,1.443-1.443V21.339H50.375Z" transform="translate(-0.159 -2.4)"/></svg>